<?xml version="1.0"?>
<svg xmlns="http://www.w3.org/2000/svg" xmlns:xlink="http://www.w3.org/1999/xlink" version="1.1" id="Capa_1" x="0px" y="0px" width="512px" height="512px" viewBox="0 0 612 612" style="enable-background:new 0 0 612 612;" xml:space="preserve" class=""><g transform="matrix(0.833096 0 0 0.833096 51.0725 51.0725)"><g>
	<g>
		<path d="M16.051,180.818h579.898c8.874,0,16.051-6.176,16.051-13.909c0-7.678-7.288-13.909-16.051-13.909H16.051    C7.177,153,0,159.176,0,166.909C0,174.587,7.288,180.818,16.051,180.818z" data-original="#000000" class="active-path" data-old_color="#000000" fill="#DDDDDD"/>
		<path d="M16.051,319.909h579.898c8.874,0,16.051-6.176,16.051-13.909c0-7.678-7.288-13.909-16.051-13.909H16.051    C7.177,292.091,0,298.267,0,306C0,313.678,7.288,319.909,16.051,319.909z" data-original="#000000" class="active-path" data-old_color="#000000" fill="#DDDDDD"/>
		<path d="M16.051,459h579.898c8.874,0,16.051-6.176,16.051-13.909c0-7.678-7.288-13.909-16.051-13.909H16.051    C7.177,431.182,0,437.357,0,445.091C0,452.769,7.288,459,16.051,459z" data-original="#000000" class="active-path" data-old_color="#000000" fill="#DDDDDD"/>
	</g>
</g></g> </svg>
